# xmcd
#
# Track frame offsets:
#	150
#	15579
#	34413
#	51460
#	66875
#	82035
#	98633
#	113911
#	132664
#	149713
#	165139
#	180149
#	208148
#
# Disc length: 2790 seconds
#
# Revision: 1
# Processed by: cddbd v1.5.2PL0 Copyright (c) Steve Scherf et al.
# Submitted via: audiograbber 1.83.01
#
DISCID=b80ae40d
DTITLE=Terri Clark - Chartbuster 
DYEAR=1900
DGENRE=karaoke
TTITLE0=Better Things To Do (vocal)
TTITLE1=If I Were You (vocal)
TTITLE2=Now That I Found You (vocal)
TTITLE3=Poor Poor Pitiful Me (vocal)
TTITLE4=Emotional Girl (vocal)
TTITLE5=You're Easy On The Eyes (vocal)
TTITLE6=Better Things To Do
TTITLE7=If I Were You
TTITLE8=Now That I Found You
TTITLE9=Poor Poor Pitiful Me
TTITLE10=Emotional Girl
TTITLE11=You're Easy On The Eyes
TTITLE12=data
EXTD=
EXTT0=
EXTT1=
EXTT2=
EXTT3=
EXTT4=
EXTT5=
EXTT6=
EXTT7=
EXTT8=
EXTT9=
EXTT10=
EXTT11=
EXTT12=
PLAYORDER=
